<svg xmlns="http://www.w3.org/2000/svg" width="24" height="24" viewBox="0 0 24 24">
  <g id="组_11897" data-name="组 11897" transform="translate(-580 -352)">
    <g id="组_11901" data-name="组 11901" transform="translate(-11)">
      <rect id="矩形_12188" data-name="矩形 12188" width="24" height="24" rx="2" transform="translate(615 376) rotate(180)" fill="#c5cdd6"/>
    </g>
    <path id="联合_885" data-name="联合 885" d="M6876-8117h-7a2,2,0,0,1-2-2v-12a2,2,0,0,1,2-2h12a2,2,0,0,1,2,2v12a2,2,0,0,1-2,2Zm5-2v-12h-5v3h-2v-3h-5v12h5v-3h2v3Zm-9-5v-2h6v2Z" transform="translate(-6283 8489)" fill="#fff"/>
  </g>
</svg>
